<svg width="300" height="300" viewBox="0 0 300 300" fill="none" xmlns="http://www.w3.org/2000/svg">
<circle cx="150" cy="150" r="150" fill="#9960F6"/>
<circle opacity="0.35" cx="150" cy="150" r="114.777" fill="#5551FF"/>
<circle opacity="0.3" cx="150" cy="150" r="76.2146" fill="#3530FF"/>
<path d="M122.151 146.457H126.572C126.508 142.568 123.312 139.884 118.454 139.884C113.671 139.884 110.166 142.526 110.187 146.489C110.177 149.706 112.446 151.549 116.132 152.433L118.508 153.03C120.883 153.605 122.204 154.287 122.215 155.757C122.204 157.355 120.692 158.442 118.348 158.442C115.951 158.442 114.225 157.334 114.076 155.15H109.612C109.729 159.869 113.106 162.309 118.401 162.309C123.728 162.309 126.86 159.763 126.871 155.768C126.86 152.135 124.122 150.207 120.329 149.354L118.369 148.886C116.473 148.449 114.886 147.746 114.918 146.18C114.918 144.773 116.164 143.74 118.422 143.74C120.628 143.74 121.981 144.741 122.151 146.457ZM150.023 151.091C150.023 143.953 145.591 139.884 139.807 139.884C133.99 139.884 129.59 143.953 129.59 151.091C129.59 158.197 133.99 162.298 139.807 162.298C145.591 162.298 150.023 158.229 150.023 151.091ZM145.346 151.091C145.346 155.714 143.152 158.218 139.807 158.218C136.451 158.218 134.267 155.714 134.267 151.091C134.267 146.467 136.451 143.964 139.807 143.964C143.152 143.964 145.346 146.467 145.346 151.091ZM161.175 162C167.822 162 171.849 157.888 171.849 151.07C171.849 144.273 167.822 140.182 161.239 140.182H153.44V162H161.175ZM158.053 158.048V144.134H160.994C165.084 144.134 167.247 146.222 167.247 151.07C167.247 155.938 165.084 158.048 160.983 158.048H158.053ZM177.797 162L179.416 157.025H187.289L188.908 162H193.851L186.33 140.182H180.385L172.853 162H177.797ZM180.588 153.424L183.272 145.168H183.443L186.128 153.424H180.588Z" fill="#FFA72B"/>
</svg>
